<svg fill="#000000" height="200px" width="200px" version="1.1" id="Layer_1" xmlns="http://www.w3.org/2000/svg" xmlns:xlink="http://www.w3.org/1999/xlink" viewBox="0 0 512.122 512.122" xml:space="preserve"><g id="SVGRepo_bgCarrier" stroke-width="0"></g><g id="SVGRepo_tracerCarrier" stroke-linecap="round" stroke-linejoin="round"></g><g id="SVGRepo_iconCarrier"> <g transform="translate(-1)"> <g> <g> <path d="M129.122,192.015c-23.573,0-42.667,19.093-42.667,42.667c0,23.573,19.093,42.667,42.667,42.667 s42.667-19.093,42.667-42.667C171.789,211.108,152.696,192.015,129.122,192.015z"></path> <path d="M257.122,192.015c-23.573,0-42.667,19.093-42.667,42.667c0,23.573,19.093,42.667,42.667,42.667 s42.667-19.093,42.667-42.667C299.789,211.108,280.696,192.015,257.122,192.015z"></path> <path d="M385.122,192.015c-23.573,0-42.667,19.093-42.667,42.667c0,23.573,19.093,42.667,42.667,42.667 c23.573,0,42.667-19.093,42.667-42.667C427.789,211.108,408.696,192.015,385.122,192.015z"></path> <path d="M257.122,21.348c-140.549,0-256,94.456-256,213.333c0,42.486,14.726,80.097,43.315,115.194 c1.223,21.779-2.303,47.592-14.033,71.842c-5.819,12.03-13.427,22.939-23.034,32.545c-15.893,15.893,0.425,42.387,21.77,35.344 c6.095-2.011,32.27-10.185,37.447-11.845c17.378-5.575,31.791-10.607,45.763-16.155c24.1-9.569,45.079-20.024,62.609-31.766 c2.946,1.242,5.655,2.38,6.998,2.935c6.73,2.78,12.081,4.835,17.371,6.618c17.796,5.998,34.656,8.621,57.794,8.621 c140.549,0,256-94.456,256-213.333S397.671,21.348,257.122,21.348z M257.122,405.348c-18.617,0-30.88-1.907-44.167-6.386 c-0.691-0.233-1.388-0.474-2.098-0.724c12.922-15.631,21.285-33.244,24.641-53.383c1.937-11.622-5.914-22.613-17.536-24.55 c-11.622-1.937-22.613,5.914-24.55,17.536c-3.026,18.156-13.852,34.296-32.036,48.886c-1.8,1.005-3.461,2.273-4.918,3.777 c-15.426,11.353-35.45,21.758-59.854,31.448c-7.463,2.963-15.13,5.791-23.454,8.672c12.424-30.006,15.644-60.377,13.649-86.73 c-0.186-2.457-0.385-4.297-0.544-5.455c-0.561-4.073-2.287-7.898-4.97-11.013c-25.214-29.273-37.497-58.912-37.497-92.744 c0-93.211,94.672-170.667,213.333-170.667s213.333,77.456,213.333,170.667S375.784,405.348,257.122,405.348z"></path> </g> </g> </g> </g></svg>