<svg width="290" height="222" viewBox="0 0 290 222" fill="none" xmlns="http://www.w3.org/2000/svg">
<path d="M289.369 175.71L270.82 133.108C280.754 119.737 285.991 104.564 285.991 89.1181C285.991 39.98 233.76 0 169.571 0C129.748 0 93.1184 15.6199 71.8781 40.7123C86.8033 35.9372 103.173 33.2889 120.335 33.2889C189.859 33.2889 246.419 76.5867 246.419 129.808C246.419 144.589 242.047 158.596 234.253 171.131L283.841 181.121C284.252 181.199 284.662 181.24 285.073 181.24C285.092 181.24 285.107 181.24 285.126 181.24C287.745 181.203 290.001 179.597 290.001 177.541C290.001 176.875 289.774 176.25 289.369 175.71Z" fill="#C2C2C2"/>
<path d="M120.335 40.6866C56.1412 40.6866 3.91512 80.6666 3.91512 129.808C3.91512 145.254 9.15271 160.423 19.0867 173.798L0.247844 217.059C-0.312636 218.349 0.0932291 219.766 1.30599 220.757C2.23368 221.516 3.51892 221.926 4.83315 221.926C5.24385 221.926 5.65454 221.886 6.06041 221.804L67.8485 209.358C84.0299 215.623 102.134 218.93 120.335 218.93C184.53 218.927 236.756 178.95 236.756 129.808C236.756 80.6666 184.53 40.6866 120.335 40.6866ZM96.6359 99.8669H149.785C152.452 99.8669 154.617 101.52 154.617 103.566C154.617 105.611 152.452 107.264 149.785 107.264H96.6359C93.9688 107.264 91.8042 105.611 91.8042 103.566C91.8042 101.52 93.9688 99.8669 96.6359 99.8669ZM173.943 159.047H72.4773C69.8102 159.047 67.6455 157.394 67.6455 155.348C67.6455 153.303 69.8102 151.65 72.4773 151.65H173.943C176.611 151.65 178.775 153.303 178.775 155.348C178.775 157.394 176.611 159.047 173.943 159.047ZM173.943 133.156H72.4773C69.8102 133.156 67.6455 131.502 67.6455 129.457C67.6455 127.412 69.8102 125.758 72.4773 125.758H173.943C176.611 125.758 178.775 127.412 178.775 129.457C178.775 131.502 176.611 133.156 173.943 133.156Z" fill="#C6C6C6"/>
</svg>
